<svg xmlns="http://www.w3.org/2000/svg" width="320" height="24" viewBox="0 0 320 24" fill="none" stroke="currentColor" stroke-width="1.25" stroke-linecap="round" stroke-linejoin="round" role="img" aria-labelledby="title">
  <title>starlight section divider</title>
  <path d="M0 12H136" opacity="0.55"/>
  <g transform="translate(148 0)"><path d="M11.017 2.814a1 1 0 0 1 1.966 0l1.051 5.558a2 2 0 0 0 1.594 1.594l5.558 1.051a1 1 0 0 1 0 1.966l-5.558 1.051a2 2 0 0 0-1.594 1.594l-1.051 5.558a1 1 0 0 1-1.966 0l-1.051-5.558a2 2 0 0 0-1.594-1.594l-5.558-1.051a1 1 0 0 1 0-1.966l5.558-1.051a2 2 0 0 0 1.594-1.594z" /></g>
  <path d="M184 12H320" opacity="0.55"/>
</svg>
